<?xml version="1.0" standalone="no"?>
<!DOCTYPE svg PUBLIC "-//W3C//DTD SVG 1.1//EN" "http://www.w3.org/Graphics/SVG/1.1/DTD/svg11.dtd">
<svg xmlns="http://www.w3.org/2000/svg">
<metadata>Copyright (C) 2018 by original authors @ fontello.com</metadata>
<defs>
<font id="icon-onset" horiz-adv-x="1000" >
<font-face font-family="icon-onset" font-weight="400" font-stretch="normal" units-per-em="1000" ascent="850" descent="-150" />
<missing-glyph horiz-adv-x="1000" />
<glyph glyph-name="infraestrutura" unicode="&#xe800;" d="M744 232c-12 3-24 5-35 5-23 0-44-8-65-14 0-1-1-2-1-3 5-4 3-7-1-10-3-2-4 0-6 2-4 6 1 8 4 10 1 0 1 1 1 1-23 26-46 52-69 77-3 4-2 6 1 9 46 47 92 94 138 141 3 4 5 4 8 1 47-49 79-103 76-173 0 0 0-1 0-1 0 0 0 0 0 1 1-1 2-1 3-3 7 6 12 15 19 22 2-11-1-20-1-30 1-1 1-2 2-2 0 0 1 0 2 1 70 79 72 207-3 282-4 4-4 7 0 11 6 5 11 11 17 16 5 6 5 12 0 18-16 15-31 30-46 45-6 6-12 6-18 1-5-6-11-12-17-17-3-3-5-4-9 0-12 12-25 25-37 37-4 3-3 6 0 9 6 5 11 10 16 16 7 7 7 12 0 19-17 17-33 34-50 51-8 7-12 7-20 0-46-47-93-93-139-140-7-7-7-12 0-19 17-17 34-34 51-51 6-6 12-6 19 1 6 5 11 11 16 16 3 4 5 4 8 1 12-13 24-25 37-37 3-3 3-5 0-8-47-46-95-92-142-138-3-4-5-4-8-1-27 26-55 50-83 74-2 0-3-1-4-3-2-5-6-2-9-1-2 1-3 3-1 5 2 2 4 8 8 3 4-3 4 1 6 2 1 4 2 8 3 12 9 29 14 59 5 89-9 27-27 48-47 67-36 35-78 46-126 33-17-4-19-12-7-24 23-23 47-47 71-70 5-5 4-8 0-13-24-22-47-45-70-69-5-6-8-5-13 1-24 23-47 47-71 71-10 10-18 7-22-6-4-12-6-24-6-37-4-65 62-128 109-140 8-2 16-3 25-4 26-2 51 7 76 14-3 6-5 11 5 13 6-6 3-10-3-14 24-26 47-53 71-79 6-6 5-9-1-15-76-74-152-147-228-221-10-10-10-14 0-24 19-19 37-37 56-56 8-8 13-8 22 0 36 38 73 76 110 113 38 39 76 79 115 118 2 3 4 6 9 2 25-23 50-45 75-67 5-2 4 9 10 5 2-1 7-1 4-6-2-2-3-7-7-4-4 3-5 2-7-1 0-3-2-7-2-11-8-26-14-52-8-79 6-33 26-56 49-78 36-36 79-47 129-33 14 4 16 12 5 23-23 23-47 48-71 72-5 4-5 6 0 10 23 24 47 47 70 71 5 4 7 5 12 0 24-25 48-49 72-73 9-8 18-7 21 5 4 13 6 26 7 39 2 67-64 130-110 140z m24 375c2 1 4 3 5 5 4 4 6 4 10 0 8-8 15-16 23-23 1-1 3-3 6-6-5-4-10-8-14-11-5-3-6 2-8 4-8 7-15 14-22 21-4 4-5 7 0 10z m-153-21c-9 9-13 8-22 0-7-6-12-18-20-17-7 0-13 11-19 17-6 6-16 12-17 19 0 8 11 13 17 20 34 34 69 68 103 102 4 5 7 5 11 0 9-10 19-19 28-28 4-4 4-7 0-10-5-5-10-10-15-15-8-8-8-13 0-21 38-38 76-77 115-115 26-26 44-57 50-93 9-49 1-95-24-138-1-1-2-3-3-4-1 0-1-1-3-1-1 10-2 19-4 29-12 53-40 96-78 134-39 41-79 81-119 121z m-97-222c47 46 94 92 141 137 4 4 6 4 10 0 8-9 17-18 26-26 2-2 3-3 4-4-2-2-3-3-4-5-46-47-92-94-138-141-3-3-5-3-9 1-10 10-19 20-30 30-3 3-3 5 0 8z m-273 277c-4 5-1 11 4 12 8 3 9-7 14-11-6 0-13-8-18-1z m-105-96c2 5 8 7 12 3 8-5-2-11-1-17-4 5-13 6-11 14z m328-312c-51-52-102-104-153-156-20-21-41-42-61-63-4-5-7-4-11 0-12 13-24 25-36 37-4 4-4 6 0 10 74 71 147 143 221 215 4 4 6 4 10 0 10-11 21-21 32-32 1-1 2-2 3-3 0-4-3-6-5-8z m373-172c-2-5-8-7-13-3-7 6 2 12 2 18 3-6 13-7 11-15z m-12 18c-4 0-5 3-6 5-21 21-42 41-62 62-12 12-15 12-27 0-28-29-58-58-87-87-11-11-11-14 0-25 23-23 46-46 69-70-19-4-37-2-54 5-38 15-89 67-83 119 2 20 7 39 15 57 4 10 3 16-6 22-85 71-163 148-233 234-7 7-12 8-21 5-31-12-62-21-95-10-38 12-95 67-89 121 1 3 0 7 2 10 4-1 5-4 7-6 22-21 43-43 64-64 9-8 13-8 21 0 31 31 62 62 93 93 8 7 8 12 0 20-21 21-43 43-64 64-2 2-5 4-7 8 24 3 46 1 66-11 24-15 45-35 59-60 11-20 15-42 10-65-3-16-6-32-13-46-4-9-3-15 5-21 29-24 58-50 86-77 52-48 99-99 144-153 12-14 12-14 29-8 29 10 58 19 89 9 51-15 92-70 90-120 0-4 0-8-2-11z m-14 187c-2-5-6-3-9-1-4 2-11 3-9 10 0 0-1 0-1 0-1 0-2 1-2 2-1-3-2-6-2-9-1-5 1-10 5-12 5-3 9-2 13 1 3 3 5 6 7 8-1 0-1 0-2 1z m-414 186c4-4 7 4 10 1 0 2 0 4 0 6 0-8-8-2-10-7z m-61-67c1 2 5 3 3 7 0 1-1 1-2 1-4-2-1-5-2-9 0 0-1-1-1-1 0 0 1 0 2 0 0 1 0 1 0 2z m240-231c-4 4-7-4-10 0 0-2 0-4 0-6 0 7 7 1 10 6z m58 63c0-2 0-3 1-4 2 0 3 1 3 2 1 3-2 6 1 7 0 0-2 0-2 1 1-3-2-4-3-6z m176 50c0 0 0 0 0 0-3 9 2 17 1 26-5-6-8-15-17-18 3-6 8-10 16-8z m1-1c0 0 0 0 0 1 0 0 0 0-1 0 1-1 1-1 1-1z m-17 9c0 0-1 0 0 0-1 0-1 0 0 0-1 0 0 0 0 0z" horiz-adv-x="1000" />

<glyph glyph-name="projetos" unicode="&#xe801;" d="M910 408c-12 14-27 27-40 41-11 11-12 11-22 0-69-68-138-137-207-206-2-2-4-5-8-7-1 4-1 7-1 11 0 144 0 288 0 433 0 12-2 15-14 15-33 0-66 0-100 0-7 0-9 2-9 9 0 8 0 17 0 25 0 9-4 12-12 12-88 0-175 0-262 0-9 0-12-3-13-12 0-9 0-18 0-26 1-7-2-8-8-8-34 0-67 0-101 0-10 0-14-4-14-14 0-214 0-427 0-640 0-11 4-15 15-15 168 0 336 0 503 0 11 0 15 4 15 15 0 24 0 48 0 72 0 6 2 10 6 15 89 88 178 177 266 266 2 1 4 3 5 5 4 3 5 5 1 9z m-668 307c0 6 1 8 8 8 78 0 156 0 234 0 6 0 8-1 8-8-1-24 0-48 0-72 0-4-2-9 6-9 3 0 3-3 3-6 0-3 0-5 4-5 3 1 3 3 3 6 0 12 0 25 0 37-1 8 1 11 10 11 29-1 57-1 86 0 9 0 11-3 11-12 0-135 0-269 0-404 0-13 0-25 0-38 0-3 1-6-1-8-4-5-8-9-12-14-4 4-3 7-3 10 0 95 0 189 0 284 0 9-3 16-9 22-32 30-63 61-95 92 0 0-1 1-2 3 5 1 13-1 15 6-1 6-6 2-9 3-3 1-8-2-8 4 0 1 0 3 0 5-4 2-8 1-12 1-75 0-150 0-226 0-8 0-11 3-11 11 0 24 0 48 0 73z m201-103c7 0 16 4 23-3 31-30 63-61 93-91 1-1 2-2 4-4-40 0-79 0-117 0-4 0-5 2-5 6 0 29 0 58 0 87-1 2-1 6 2 5z m-220 18c0-14 4-17 17-17 57 0 114-1 171 0 9 0 10-2 10-10 0-31 0-63 0-94 0-12 4-15 15-15 45 0 88-1 132 0 9 0 11-3 11-10-1-98-1-196 0-294 0-6-1-11-6-16-3-3-5-8-7-12-14-28-29-56-44-84-2-4 2-12-7-12-1 5 5 7 4 11-118 0-236 0-354 0-8 0-10 3-10 10 0 184 0 368 0 552 0 7 3 9 10 9 17 0 34 0 51 0 6 0 8-1 7-7 0-3 0-7 0-11z m384-583c-1 0-3 0-4 0-158 0-315 0-472 0-9 0-11 2-11 10 1 203 1 405 0 608 0 8 2 10 11 10 28 0 56 0 84 0 3 0 8 2 8-3 0-6-5-4-8-4-18 0-37 0-56 0-14 0-23-10-24-23 0-11 0-21 0-32 0-175 0-350 0-525 0-24 8-32 33-32 133 0 266 0 399 0 23 0 32 10 32 32 0 14 0 14 15 19 0-18 0-36 0-54-1-5-2-7-7-6z m-51 32c5 2 10 5 15 7 2 1 4 4 6 2 1-1 1-4 0-7 0-2-2-4-4-4-6 0-11 0-17 0 0 1 0 1 0 2z m53 43c-16-8-32-16-48-25-3-1-5-1-8 1-2 3-2 5-1 8 9 16 18 33 26 49 1 1 1 3 4 3 13 1 32-18 31-31 1-3-2-4-4-5z m-18 49c1 3 4 5 6 7 63 63 126 127 190 190 2 2 4 7 7 5 4-3 8-7 12-11 1-2-2-4-4-5-8-9-17-17-25-26-52-51-103-102-155-154-13-13-13-13-31-6z m234 162c-66-66-132-132-199-199-2 6-3 11-5 15-2 4-1 7 2 9 63 63 126 126 188 189 7 7 9 0 12-3 5-3 8-6 2-11z m22 22c-2-2-4-4-6-7-1 2-3 2-4 3-10 10-20 21-30 30-4 4-1 6 1 8 2 2 3 5 7 1 10-10 20-20 30-30 2-1 4-3 2-5z m45 45c-10-10-20-19-29-29-3-3-5-3-8 0-9 10-19 19-28 29-4 3-4 5-1 8 10 10 20 19 29 29 3 3 5 3 7 0 10-10 20-20 30-30 1-1 2-2 3-3-1-2-2-3-3-4z m-278-178c0 148 0 296 0 444 0 9 0 10-10 10-28 0-57 0-85 0-10 0-10-1-10-11-1-15 1-31-2-47 4 2 2 6 2 9 0 13 1 25 0 38 0 8 2 10 10 10 28 0 55 0 82 0 12 0 12 0 12-12 0-129 0-259 0-389 0-20 0-39 0-59 2 2 1 4 1 7z m-116 402c2 2 2 5 0 6-2 4-5 2-8 0 1-1 5 1 5-3 0-2-4-1-5-2 3-2 5-3 8-1z m24-547c-2 0-3 0-4 0 1-1 2-1 4 0z m-306 509c-3 5-8 9-14 4-6-4-5-10-2-15 4-6 7-12 11-19-11 1-15-2-15-11-1-10-1-20 0-30 0-9 4-13 13-13 21 0 42 0 63 0 10 0 13 2 13 13 0 18 0 36 0 55-1 8 1 15 6 22 4 5 5 11 0 15-6 4-13 3-15-3-6-13-15-14-27-13-4 0-8 0-11 0-9 0-15-2-16-12-2 3-4 5-6 7z m48-37c0 0 1-1 1-1 0-6 0-12 0-18 1-7-2-9-9-8-3 0-6 0-10 0 6 9 12 18 18 27z m-12 21c0-2-1-4-2-5-4-5-7-15-10-13-6 3-11 10-12 18 8 0 16 0 24 0z m-18-48c-20-1-18-5-16 25 5-9 11-16 16-25z m55-177c-5 3-9 2-12-2-2-3-4-5-5-8-3-5-7-7-13-7-9 1-17 1-25 0-7 0-12-3-12-12 1 0 2-1 2-3 0 0-1-1-1 0-2 1-2 2-2 4l0 0v0c-1 2-3 4-4 6-4 6-9 9-15 5-6-4-6-10-2-16 5-6 8-12 13-19 0 0 0 0 0 0 3-2 5-5 6-9 5-8 9-17 16-23 4-2 8-2 11 0 8 7 13 17 18 26 1 1 2 6 3 1 1-9 1-18 1-27 0-4-3-4-6-4-14 0-27 0-40 0-6 0-6 4-6 8-1 9 3 18-4 26 0 0 0 0 0 0-9 5-15 1-15-9-1-10-1-21 0-31 0-8 3-12 12-12 22 0 43 0 64 0 9 0 12 3 12 12 0 16 0 31 0 47 0 11-1 23 8 33 4 5 1 11-4 14z m-47-55c-1-2-2-2-4 1-4 5-7 10-11 17 9 0 17 0 25 0-2-7-6-12-10-18z m48 185c-6 4-12 2-14-3-6-14-17-14-29-13-4 0-9 0-13 0-4 0-8-1-10-5 0-4-1-9 2-13-4 1-5 3-5 6l0 0v0c-1 2-3 4-4 6-4 6-9 9-15 5-6-4-6-10-2-16 4-6 8-12 12-18-12 1-16-3-16-13 0-10 0-20 0-29 0-9 4-12 12-12 22 0 43 0 64 0 10 0 13 2 13 13 0 18 0 35 0 53 0 9 0 17 6 24 4 5 5 11-1 15z m-38-37c0-1 0-2 0-2-4-6-7-16-12-16-6 0-8 10-13 17 9 2 17 1 25 1z m15-46c0-4-3-4-6-4-13 0-26 0-40 0-5 0-6 2-6 6 0 10 2 19-3 29 4-2 5-6 7-8 4-8 8-15 14-22 4-3 8-4 13-2 7 8 12 18 17 27h0c3 2 4 2 4 0 0-9 0-17 0-26z m253-229c-35 0-70 0-105 0-29 0-59 0-88 0-7 0-14 0-21 0-6 0-10-4-11-10 0-7 5-10 11-10 2-1 5-1 8-1 68 0 135 0 203 0 4 0 8 0 12 1 3 2 5 4 6 8 1 4 0 6-3 9-4 3-8 3-12 3z m-246-47c-5 1-9 0-9 7 1 4-3 4-6 4-12 0-24 1-37 0-5 0-7 2-7 8 1 12 1 25 0 37 0 5 1 8 7 8 13-1 26-1 39 0 5 0 6-2 6-7 0-12 0-24 0-37 0-3 0-7 5-6 3 0 4-2 4-5 0-2 1-5 4-5 5 0 3 4 3 7 0 21 0 44 0 66-2 4-6 5-10 5-21 0-42 0-64 0-9 0-13-4-13-13 0-21 0-42 0-63 0-9 5-13 13-13 22 0 43 0 64 0 4 0 8 0 10 5-1 5-6 2-9 2z m33 288c36 0 72 0 108 0 2 0 3 0 5 0 34 0 68 0 103 0 10 0 15 7 11 15-3 5-8 4-12 4-70 0-139 0-208 0-3 0-7 0-10 0-6 0-8-3-8-8-1-7 3-11 11-11z m-1-131c37 0 73 0 109 0 36 0 72 0 108 0 6 0 12 2 12 10-1 7-5 10-12 10-72 0-144 0-216 0-2 0-5 1-7-1-4-2-6-6-5-11 2-6 6-8 11-8z m2 261c12 0 25 0 37 0 13 0 25 0 38 0 7 0 12 2 13 10 1 8-5 10-12 10-26 0-51 0-76 0-7 0-12-1-12-9-1-8 4-11 12-11z m-43-364c-1 3-3 5-7 6 4-1 5-3 7-6z m18 22c2-23 1-46 1-69 0-2 0-5-3-5-2 0-4 0-5 2-1 0-1 1-2 2 0-2 0-2-1-3 2 0 4-1 6-1 2-1 7 0 4-5 3 2 3 4 3 6 0 22 0 44-1 66 0 2 1 5-2 7z m-13-65c-2 2-4 5-5 7 0-3 0-4-2-5 2-1 3-2 4-4 0 1 1 2 3 2z m-24 132c0 0 0 0 0 0 1 0 2 0 3 1 0 0-1 0-1 0-1 0-1 0-2-1z m-13 1c-1 0-1-1-2-1 2 0 3 0 5 0 0 0-1 0-1 0-1 0-1 1-2 1z m13-1c-3 0-6 0-10 0 4-1 7-1 10 0z m-29 24c0-1 0-1 0 0 0 0 0 1 0 1 0 0 0-1 0-1z m0-1c0 0 0-1 0-1 0 0 1 1 1 1 0 0 0 0-1 0z m-2 6c1 0 1-1 1-2 0 1 0 2-1 2z m0 0c-1 2-2 3-3 5 0 0 0 0 0 0 0 0 0-1 0-2 0 0 0 0 0 0 1 0 3-1 3-3z m8 159c1 2-1 5 1 7-3-1-1-5-3-7 1 0 1-3 2 0z m-1-131c0 0-1 1-1 1 0 0 1-2 1-1z m41-38c0 2 0 3 1 4-4-5-7-11-11-16-1-1-2-3-4-4 13 1 13 2 14 16z m1 4c0 0 0 1 1 1 0-6 0-11 0-17 0-4-2-6-6-6-3 0-7 0-10-1 5-1 10 0 14 0 2 0 3 2 2 3 0 8 2 17-1 25 1-1 0-3 0-5z m-15-21c-1 0-2 0-3 0 0 0 1-1 1-1 1 1 2 1 2 1z m-29 6c0-2 1-5 4-5 3 0 6-2 9-1-7 4-10 12-14 19 0-4 1-8 1-13z m13-7c1 1 1 1 2 1-1 0-1 0-2 0 0 0 0-1 0-1z m-15 13c0 3 0 6-1 8-2-6 0-13 0-20 0-1 1-2 2-2 4 1 8 0 12 0 0 0-1 0-2 0-11 3-11 2-11 14z m1 7c0 2 0 3 0 4-1 0-1-1-1-2 0-1 0-1 1-2z m27 110c6-2 13-3 19 0 3 1 1 8 1 13 0 4 0 8 0 12 0 1 0 3-2 2l0 0c3-8 1-16 1-25 0-1 0-3-2-3-6 1-11-2-17 2 0 0 0-1 0-1z m-29 7c0-2-1-7 3-7 4 0 10-4 13 3-13-2-13-2-13 11 0 3-2 7-1 10-4-5-1-11-2-17z m48-251c-1-5-1-8 1-12 0 0 0 0 0 0-1 7 0 13 0 19 0 8 0 13-1 17 0-1 0-2 0-3 0-7 1-14 0-21z m-38-16c-7 0-9 2-9 9 0 9 0 19 0 29 0 6 2 9 8 9 10 0 20 0 30 0 0 0 1 0 2-1-4 1-9 1-17 1-8 0-18 3-22-1-6-5-1-15-2-22 0-7 0-14 0-20 0-4 1-5 6-5 12 0 24 0 36 0 2 0 2 0 4 0-2 1-4 1-6 1-10 0-20 0-30 0z m43-3c0 0 0 0 0 0 1-2 3-4 4-5 0 0 0 0 0 1 0 2-1 4-4 4z m-2-3c0 0-1 1-1 1 0-1 0-2 0-2 0-3 1-4 3-4 2 0 2 0 3 1-2 0-5 1-5 4z" horiz-adv-x="1000" />

<glyph glyph-name="alocacao-de-profissionais" unicode="&#xe802;" d="M896 626c-185 0-369 0-554 0-13 0-15-1-15-15 0-6-2-9-8-10-58-11-96-47-115-103-29-89 3-198 77-257 22-17 46-31 75-30 28 1 51 14 73 31 3 3 7 6 12 6 54-1 108-1 162 0 6 0 8-3 8-9 0-16-1-32 0-48 0-9-2-12-11-14-18-4-35-9-53-13-2-4-3-8 3-10 1 0 3 0 5 0 2-1 4 1 5-2 1-2-3-2-4-3 1-6 7-8 10-12 30 0 60 0 90 0 26 0 53 0 80 0 9 0 13 5 10 11-2 4-6 5-11 6-33 7-66 16-100 23-7 2-10 4-10 12 1 15 1 31 0 46 0 10 4 12 13 12 85 0 171 0 256 0 14 0 15 2 15 16 0 116 0 232 0 348 1 14 0 15-13 15z m-459-354c-20-23-44-40-76-45-18-3-34 3-49 12-52 33-82 81-97 140-4 16-5 33-5 49 0 32 5 62 20 90 24 44 61 66 110 70 47 3 88-9 119-47 23-26 32-57 35-91 6-67-12-127-57-178z m427 33c0-8-2-11-11-11-123 1-246 1-369 0-9 0-10 1-5 10 32 58 40 119 24 184-9 37-28 67-62 91 6 0 9 0 13 0 132 0 265 0 398 1 10 0 12-3 12-12-1-88 0-176 0-263z m-196-153c-34 0-65 0-96 0 19 14 66 14 96 0z m228 112c0 0 0 0 0 0-91 0-182 0-273 0-57 0-113 0-170 0 5 9 10 15 22 15 130 0 259 0 388 0 16 0 17 0 17 16 0 95 0 190 0 284 0 15-1 16-16 16-149 0-298 0-447 0-3 0-6 0-8 0-19 7-39 9-59 9-2 0-5-1-5 3 0 3 3 2 5 2 2 0 5 0 7 0 176 0 351 0 526 1 10 0 13-3 13-13 0-107 0-214 0-321-1-4-1-8 0-12 0 0 0 0 0 0l0 0z m-341-116c0 0 0 0 0 1-1 0-3 1-4 2-1 0-2 0-3 1-5 4-7 7 0 12-6-1-9 1-13 5-26 24-53 45-84 62-14 7-14 7-23-5-22-28-46-53-73-74 0-2 0-4 1-4 1-3 0-5-2-7 0 0-2 0-3 0-2 2-3 4-1 7 0 0 0 2 0 4-27 21-50 45-71 71-12 15-12 15-28 6-63-35-111-86-153-144-9-12-8-16 6-20 165-58 330-58 495-1 15 5 16 9 7 21-12 18-26 34-40 51-6 2-10 5-11 12z m35-69c3 0 5 0 7 2 3 1 5 0 6-3 1-2 1-4-1-5-3-2-5-3-6 0-2 4-4 5-8 4-46-16-94-27-143-33-109-15-217-3-322 31-2 1-4 2-6 2-4 1-6 0-8-4-2-2-3-2-6 0-2 1-3 2-2 5 1 2 2 4 5 3 3-2 6-2 9 0 38 53 82 99 139 132 3 1 5 4 9 4 0 0 0 0 0 0 0 0 0 0 0 0 0 3-6 5-1 8 1 1 3 2 4 0 5-4-2-7-1-10 23-29 48-55 77-79 7-6 13-5 20 0 29 24 54 50 77 79 0 0 0 1 0 1-2 3-4 6-1 9 1 2 3 1 4 0 5-3 1-6-1-9 45-22 81-55 115-93 12-13 25-26 34-44z m-235 73c-1 0-3 0-4 0 1-2 1-4 2-5 1 1 1 3 2 5z m199-1c0 0 0 0 0 0 0 0 0 0 0 0z m0 0c1 0 1-1 1-2 0 0 1 0 1 0 0 1 0 1-2 2z m-3 1c1 0 3 0 3-1-1 1-3 1-4 3 0-1 1-2 1-2z m-434-75c-1 2-1 3-2 4-1-2 1-2 2-4z m473 2c0 0-1-1-2-2 1 1 2 1 2 2z m-150 136c0 1 1 2 1 3 0-1-1-2-1-3z m-176 2c0-1 1-1 1-2 0 1 0 1-1 2z" horiz-adv-x="1000" />

<glyph glyph-name="gerenciamento-de-ti" unicode="&#xe803;" d="M907 53c-23 31-50 59-84 78-5 3-6 5-2 10 29 33 40 72 34 115-6 37-24 66-62 76-37 11-71 5-97-25-18-20-23-44-24-70 0-39 14-72 42-101-21-11-39-23-54-39-10-9-10-12-1-22 17-18 33-35 48-53 7-8 14-12 24-12 57-4 114 3 169 22 13 4 15 10 7 21z m-210 213c10 33 35 52 72 50 32-1 57-22 64-54 2-10 3-19 3-28-1-36-13-67-41-90-21-17-38-17-59 0-36 28-52 79-39 122z m70-176c5-4 2-6-1-9-1-2-2-2-4 0-2 3-5 5 0 9 1 0 1 1 2 2-8 6-15 13-22 20 15 0 29-3 43 2-5-10-13-16-20-22 1-1 1-2 2-2z m-97-10c-3 0-6 3-6 6 1 3 3 5 6 6 3-2 7-3 6-7-1-3-3-6-6-5z m208-34c-49-14-98-21-149-15 0-5-2-7-6-8-1 3-3 7 2 8-12 17-27 33-42 48-6 6-4 9 1 13 10 7 18 15 29 20 1 4-7 9 1 12 3 1 4 1 5-1 5-7-3-8-4-11 12-14 25-27 39-39 7-6 13-6 20 0 14 12 26 25 39 39 0 1-1 2-2 2-4 2-5 5-2 9 2 2 4 2 6 1 5-3 3-6 1-9 0 0 0-2 0-3 26-14 46-35 65-58 4-6 2-7-3-8z m-566-32c0 4 1 8 6 8 16 18 32 35 48 52 11 10 11 14 0 24-15 15-33 28-52 38 2 3 3 5 5 6 1 2 3 4 5 6 28 35 37 75 28 119-10 43-43 69-87 70-44 1-79-24-89-66-12-47-3-90 29-128 2-3 8-6 0-11-34-18-60-46-83-76-10-14-8-19 7-24 54-19 110-26 167-22 5 0 11-1 16 4z m-121 227c0 6 1 12 2 17 9 40 37 61 77 58 36-2 61-30 64-70 0-4 0-8 0-12-1-39-16-70-47-93-17-14-32-14-50-1-34 25-47 60-46 101z m74-152c5-3 2-6 0-8-2-2-3-2-4 0-3 2-5 5 0 8 0 1 1 2 2 2-9 6-15 13-24 23 17-4 32-5 49 3-8-12-16-19-24-26 0 0 1-1 1-2z m-123-41c0 0 0 0 0 0l0 0c0 0 0 0 0 0-2-2-4-4-5-7-2-3-4-3-7-1-4 1-4 4-3 8 2 3 4 4 7 2 3 0 6-1 8-2 0 0 0 0 0 0 0 0 0 0 0 0 19 25 41 49 69 63 0 2 0 3 0 4-2 3-4 5 0 8 2 1 4 2 6 0 2-4 2-7-2-9-1-1-1-2-2-3 13-14 25-27 39-39 7-6 13-5 20 1 14 11 27 25 40 38-1 2-2 3-3 4-4 1-3 4-2 7 2 2 3 4 6 2 2-1 5-3 2-7 0-1 0-3-1-5 12-6 23-15 33-24 2-1 4 0 6 2 3 4 6 1 8-1 3-3 1-5-1-7-3-2-5-4-8 0-1 2-4 3-6 2-15-18-32-34-45-53 5-1 4-4 3-8-4 1-7 2-6 8-53-6-105 1-156 17z m458 55c-5 3-10 4-16 4 0-2-2-3-4-4-1-2-1-5-3-6-18-24-39-46-62-64 0-4 7-7 0-12-2-1-2-1-4 0-6 5 0 8 1 12-25 19-46 41-65 66-5 7-10 10-19 5-61-32-107-81-146-136-5-8-2-13 5-17 3-1 6-2 8-3 102-35 206-47 312-30 44 6 87 16 129 32 12 4 14 9 8 18-38 55-84 103-144 135z m-165-8c4 1 4-4 5-6 0-3-3-4-6-4-3 0-4 3-4 5 0 3 3 5 5 5z m190-154c-106-20-211-10-314 23-2 0-4 1-5 1 0 0 0 0 0 0l0 0c0 0 0 0 0 0-4-2-4-12-12-7-4 2-4 6-2 9 5 6 9-1 14-2 0 0 0 0 0 0 0 0 0 0 0 0 33 46 72 86 121 115 6 3 8 2 12-3 18-23 40-44 63-63 9-7 15-7 23 0 25 20 47 42 67 67 0 1 0 3-2 4-5 3-2 6 0 9 1 3 3 1 5-1 5-2 3-5 1-8-1-1-1-2-2-3 21-9 37-22 54-36 28-24 52-51 74-81-33-10-65-18-97-24z m105 16c-5 0-7 4-7 7-1 5 5 3 8 5 5 0 5-4 5-7 1-3-3-5-6-5z m-145 150c1 1 1 2 2 2 64 62 84 137 63 222-15 60-63 98-123 102-65 5-118-25-142-82-21-50-21-102-1-153 18-48 47-87 94-111 17-9 36-11 56-7 17 4 31 14 47 22 0 3 1 5 4 5z m-8 22c-45-43-80-38-120-3-44 39-66 89-67 148 0 22 3 44 11 65 22 56 71 79 123 74 63-6 103-47 111-110 8-67-8-127-58-174z m-145 406c0-1 0-1 0-1 0 0 0 0 0 1z m-305-70c2 2 5 1 7 4 0 3 3 3 5 1 2-2-1-4-3-5 4-9 11-17 17-24 2 0 4 3 6 1 2-1 2-2 1-4-2-2-4-1-7 0-1-4-3-9-4-13-6-17-6-17 8-27 25-19 25-19 50 2-1 1-3 3-1 5 0 1 1 1 2 1 3-2 2-4 1-6 5-2 10-5 14-5 14-2 20-10 21-22 1-12 8-15 20-15 33 1 33 1 41 33 0 0 0 0 0 0l0 0 0 0 0 0v0c0 0 0 0 0 0-2-1-4-1-4 2 0 0 1 2 1 2 3 0 4-2 3-4 0 0 0 0 0 0 0 0 0 0 0 0 11 1 20 5 30 9-1 2-2 5 1 6 0 1 2 0 2 0 3-2 1-4 0-6 7-6 13-14 21-16 14-3 22 13 33 18 5 2 9 6 6 11-3 10-3 22-15 28 10-1 14 7 18 13 2 3 5 6 6 9 0 3-4 5-1 9 5 0 4-4 6-7 7 0 14 0 21 0 5 0 9 1 10 5 4 13 13 26 11 39-1 10-15 12-22 19-1 0-1 0-1 1-2-2-4-5-8-2 1 4 7 4 8 8 0 7 0 14 0 21-1 4-6 4-8 7 4 6 6 1 8 0 3 2 6 4 9 6 18 13 18 8 10 31-8 25-8 25-38 26-2-2-2-8-6-5-4 2 1 5 1 8-7 8-10 22-24 22 1 5 6 2 7 5 3 8 8 16 8 25 0 7-8 9-12 13-25 18-25 18-50-2 2-2 4-4 1-6-1 0-2-1-3 0-2 2-1 4 0 6-11 3-21 13-35 5 7 12-2 22-4 33-1 1-3 2-5 3-13 0-28 3-41-1-9-3-6-16-10-23-1-1-1-2-1-3 0-4 7-5 3-9-3-2-5 3-7 5-9-4-18-6-27-9 0-3 2-7-2-7-5 1-1 6-2 9-6 4-12 8-18 12-3 2-6 4-9 2-11-8-26-14-33-25-4-8 5-18 7-27 1-1 1-1 1-3 3 2 5 3 7 0 1-2 1-2-1-4-2-2-4 1-6 2-6-8-13-16-17-25 3-1 5-3 3-5-2-2-4-1-5 1-3 5-9 1-12 4-7-2-16 4-20-4-7-12-13-26-12-40 1-10 15-13 23-19 1 0 1 0 2 0 1 2 3 3 5 2 0 0 0-2 0-3-1-2-3-2-5-2 0-10 0-20 0-30 2 0 4 1 5-2 1 0 0-2 0-2-3-1-5-1-5 2-3-2-6-3-8-4-23-17-20-9-12-36 9-24 9-24 34-24z m-15 15c-4 7-6 15-8 24 0 3 5 5 9 7 12 6 19 14 14 29 0 1 0 2 0 3 4 18 0 32-19 39-4 2-5 5-3 8 1 2 2 5 2 7 5 15 5 15 21 14 10-1 17 1 21 11 2 5 6 10 10 13 10 9 11 20 4 31-7 12 3 15 10 21 7 7 12 5 18-1 9-10 20-12 32-4 1 0 2 1 4 1 18 1 29 11 30 30 1 5 4 6 9 6 2 0 3-1 5 0 12 2 19-2 20-15 1-11 7-18 18-18 5-1 9-2 13-4 13-9 25-5 34 6 6 5 11 5 16 0 4-6 17-6 12-16-9-17-6-31 8-43 1-1 2-2 2-4 5-13 16-16 29-14 6 2 12 1 13-7 1-9 12-18-2-24-14-7-20-17-15-32 0-1 0-1 0-1-5-19 1-32 19-40 4-1 4-5 3-9-1-1-1-3-2-5-7-17-1-16-21-14-10 1-17-1-21-11-3-5-6-10-10-13-11-9-11-19-5-31 6-9 2-14-6-20-7-4-13-10-21-1-8 10-19 13-31 5-1-1-3-1-4-1-19-1-29-11-31-30 0-4-3-7-8-6-2 1-4 1-7 0-11-2-17 3-18 14-2 12-8 19-20 19-4 1-9 2-13 5-12 7-21 4-31-5-2-3-6-8-10-6-8 4-15 8-20 15-3 3 1 9 3 14 5 9 5 18-4 26-4 3-8 9-10 14-5 10-12 15-23 12-6 0-13-4-16 1z m320 77c0-1 0-1 0-1 0 0 0 0 0 1z m122-71c0 0 0 1 0 1 0-1 0-1 0-1z m-68 106c-8-4-7-11-6-18 2 1 4 1 5-1 1-1 1-3 0-3-3-2-5 1-8 2-4-4-13-6-12-13 1-8 3-18 9-25 5-5 12-1 18-2-1 3-1 5 1 6 1 0 3 0 3-1 2-3-1-5-2-7 2-3 4-6 7-9 3 1 7 3 7-1 1-4-4-3-7-3 0-6-6-11-3-17 9-14 25-17 38-7-1 2-4 4-1 6 1 1 2 1 3 1 2-2 2-5 0-7 5-1 9-3 13-4 0 3 2 4 5 5 1 0 1-1 1-2 1-4-3-3-4-6 2-4 2-11 6-14 3-3 27-4 30 0 6 6 7 13 2 22 6-5 13-4 19-1-1 2-2 5 1 7 0 0 2 0 2-1 3-2 0-4 0-6 5-3 9-11 16-9 8 4 15 9 21 16 4 6-3 11-3 17-3 0-8-1-7 3 1 4 5 2 7 1 2 3 5 6 7 9-2 2-4 4-2 8 0 0 2 0 2 0 3-1 3-3 2-5 6 0 15-4 19 3 4 7 7 16 8 24 1 7-8 8-12 12-3-1-5-4-8-2 0 0 0 2 0 3 1 2 3 3 5 1 0 7 4 14-5 17 3 5 5 0 8 0 4 4 13 5 13 12-1 9-3 19-9 26-4 5-12 1-19 1 2-2 1-4-1-5-2 0-3 0-3 2 0 3 1 4 4 4-3 4-6 8-9 12-2-2-4-3-6-2 0 1-1 2 0 2 1 4 4 2 7 2 5 17 4 17-10 29-10 8-16 3-23-2-2-3 3-9-3-9-3 0-3 4-1 6-5 2-9 3-13 5-1-2-1-4-4-4-1 0-2 0-2 1-1 3 3 3 4 5-3 6-1 14-8 17-16 5-29-1-34-17 1-2 5-2 4-5 0-1-1-1-2-1-3 0-3 2-4 4-4-1-8-3-12-4 1-3 1-6-2-6-6 0-1 5-3 8-5 2-8 10-15 7-7-4-15-9-20-16-5-6 2-11 2-17 3 0 6 1 7-2 0-1 0-2 0-2-3-1-5 0-7 2-2-3-4-6-6-9-1-3 4-5 1-10-6 8-14 6-21 6-13-18-12-28 2-40 2 0 4 4 8 1z m-4 21c1 3 3 5 6 4 18-3 20 14 28 23 4 2 0 7-1 11-2 4-2 7 2 10 5 3 7 2 11-1 12-8 35-1 39 13 2 4 3 7 8 7 6 0 7-3 8-8 5-13 28-21 39-13 4 4 7 4 11 1 5-3 3-6 2-10-4-13 10-33 24-33 5 0 8-1 9-6 2-6-1-7-4-9-11-9-11-33 0-41 4-3 6-4 4-10-2-5-5-6-9-6-14 0-29-20-24-33 3-8-2-10-7-13-1 1-2 1-3 2-12 14-24 1-36 0-5-1-5-6-7-11-1-4-3-6-8-6-5 0-6 2-8 7-4 13-27 20-38 12-4-3-7-4-12-1-4 4-3 7-1 11 4 13-10 32-24 32-5 0-8 1-10 7-2 5 1 7 5 9 6 4 8 8 7 15 0 11 3 23-11 29-3 1 0 5 0 8z m13 21c0 0 0 0 1 0-1 0-1 0-1 0z m19-608c1 2-1 5 1 7-1 0-2 0-2 0 1-2-2-5 1-7z m-23 605c5-2 3 1 4 3-6-3-14 0-19-4 5 2 11 2 15 1z m180-56c-1-1-1-1-1-2 1 0 2 0 2 0 0 6 0 12 0 17-3-5 0-10-1-15z m-535 51c-5 0-9-1-14-1 5 0 9-2 14 1z m344-53c0 1-1 1-1 2-1 5 1 10-1 15 0-5 0-11 0-17 0 0 1 0 2 0z m-353-108c3 0 6 0 9 0-3 3-6 0-9 0z m113 239c-2-1-3-2-4-4 3 0 4 2 4 4z m169-241c1 0 2 1 4 2-3 2-4 0-4-2z m93 58c0-1 0-3 0-4 1 1 3 3 0 4z m-70 36c0 2 0 4 0 6-5-2-1-4 0-6z m61-25c1 0 1-1 2-2-1 1 1 3-2 2z m46 137c-1 1-3 2-4 3 1-2 1-6 4-3z m76 3c-2-1-3-2-4-3 3-2 3 1 4 3z m-461-20c0 0-1-1-1-2 2 0 3 1 1 2z m259-27c-2 1-3 2-4 3 0-3 1-5 4-3z m235-108c0 1 0 3 0 4-3-1-2-3 0-4z m-96-28c0-1 1-2 1-2 1 1 3 4-1 2z m-342 202c-2 1-3 1-5 2 2 0 2-5 5-2z m222-163c0 2 0 4 0 6-1-2-5-4 0-6z m223 2c1 1 1 2 2 2-3 1-1-1-2-2z m-502-90c0 0 1-1 1-2 2 1 1 2-1 2z m517 133c0-1 0-1 2-1 0 0 0 1 0 2-1-1-2-1-2-1z m0 1c0 0-1 0-1 0 0-1 1-1 1-1 0 0 0 0 0 1z m-190-1c-1 0-1 0-2 0 0 0 0-1 0-1 1 0 2 0 2 1z m1 0l0 0 0 0c-1 0-1 0-1 0 0 0 0 0 0 0 0 0 0 0 1 0z m-143 118c0 0-1 0-2 0 1-2 2-1 2 0z m216-15c-1-1-1-2-2-2 3-1 1 1 2 2z m44-2c-1 1-1 1-2 2 1-1-1-3 2-2z m-262-275c1 0 2 0 2 0 0 2-1 2-2 0z m201 94c1 0 1 0 2 0-1 2-2 2-2 0z m74 0c0 0 1 0 2 0-1 2-2 2-2 0z m-404-94c1 0 2 0 3 0-1 1-2 2-3 0z m-93 164c0-1 0-2 0-3 1 1 2 2 0 3z m0-33c0-1 0-1 0-2 2 1 1 1 0 2z m198-516c3 2 6 4 6 8-3-2-5-5-6-8z m336 629c0 1 0 2 0 3-1-1-3-2 0-3z m-146 3c0-1 0-2 0-3 3 1 1 2 0 3z m312-535c1 0 1 0 2 0-1 2-2 2-2 0z m-101 0c1 0 2 0 2 0 0 2-1 2-2 0z m16-80c-1 0-2 0-4 0 2-1 3-1 4 0z m-382 56c0-1 0-3 0-4 1 2 1 3 0 4z m-35 24c1 0 2 0 3 0-1 2-2 2-3 0z m-100 0c1 0 1 0 2 0-1 2-2 2-2 0z m90-80c-1 0-2 0-4 0 2-1 3-1 4 0z m354 599c0 0 0 0 0 0 0-1 0-1 1 0l-1 0c0 0 0 0 0 0z m-384-213c71-1 129 58 129 128 0 71-58 128-129 129-70 0-128-58-128-128 0-71 57-129 128-129z m1 243c63 0 115-52 114-115 0-64-51-115-114-115-64 0-116 52-116 116 1 63 53 115 116 114z m302-141c34 0 62 28 62 62 0 35-27 63-62 63-34 0-62-27-62-62-1-35 27-63 62-63z m0 111c27 0 49-23 49-49-1-27-23-49-49-49-27 0-49 22-49 49 0 28 22 50 49 49z m-303-187c57 0 103 46 103 103 0 56-46 102-103 102-57 0-102-46-102-103 0-57 46-102 102-102z m1 191c49 0 89-40 89-89 0-48-41-89-90-89-49 0-89 40-88 90 0 49 40 89 89 88z" horiz-adv-x="1000" />

<glyph glyph-name="seguranca-da-informacao" unicode="&#xe804;" d="M754 425c-8 4-10 8-10 16 1 21 0 42 1 63 0 9-3 16-10 22-67 65-133 130-199 195-7 7-15 10-25 10-115-1-230 0-346 0-30 0-40-11-40-40 0-123 0-246 0-369 0-122 0-245 0-368 0-29 11-40 40-40 67 0 133 0 200 0 113 0 227 0 341 0 27 0 38 11 38 38 0 21 1 41 0 62-1 9 3 13 11 17 72 40 115 101 119 184 5 94-38 165-120 210z m-228 99c9 1 5 8 5 12 1 50 0 98 1 148 0 1-6 12 5 5 55-54 111-108 169-164-60 0-116 0-172 0-1-2-2-3-2-5 0-4-1-8-7-7-3 0-4 2-4 4 0 4 1 7 5 7z m196-521c-1-17 0-35 0-52 1-12-4-16-15-16-103 1-207 1-310 1-77 0-155 0-232 0-16 0-17 0-17 17 0 246 0 493 0 739 0 17 1 18 18 18 111 0 222 0 332 0 10 0 13-2 13-13 0-58 0-117 0-175 0-18 2-20 19-20 60 0 119 0 179 0 12 0 14-3 14-14-1-16-1-32-1-49-46 14-90 15-134 1-6-2-12-3-16-6-20-12-42-13-64-13-92 1-184 1-276 1-4 0-8 0-12-1-6-1-9-4-9-10 0-7 3-10 9-11 4 0 8 0 12 0 89 0 177 0 266 0 4 0 8 0 15 0-22-19-39-40-52-63-4-6-10-3-15-3-70 0-140 0-211 0-3 0-5 0-8 0-7 0-17 0-16-11 0-11 9-11 17-11 68 0 136 0 204 0 5 0 9 0 16 0-7-21-13-40-15-60-1-8-7-6-12-6-62 0-124 0-186 0-4 0-9 1-13 0-7 0-12-3-12-11 0-8 6-10 12-11 4 0 7 0 11 0 62 0 125 0 187 0 9 0 12-2 13-11 1-15 3-31 8-45 3-10-1-10-9-10-67 0-134 0-202 0-4 0-8 1-12 0-5-1-8-5-8-11 0-5 3-9 8-10 4-1 8 0 12 0 70 0 140 0 210 0 8 0 13-2 17-10 9-21 24-38 39-55-5-4-10-2-14-2-84 0-168 0-251 0-4 0-8 0-12 0-6-1-8-5-9-10 0-6 3-10 8-11 4-1 9-1 13-1 93 0 187 0 280 0 9 0 16-1 23-6 54-34 113-44 175-28 11 3 14 1 13-11z m-68 25c-110 0-200 91-200 201 1 109 90 198 199 198 110 1 201-90 201-200 0-109-91-199-200-199z m-121 651c-1-48 0-97 0-145 0-3-1-7 1-9 0 50 0 100 0 150 0 5-2 10 3 14-7-1-4-7-4-10z m-313-104c3-1 6 0 9 0 75 0 150 0 225 0 3 0 7 0 10 1 5 1 8 5 8 10 0 5-3 9-8 10-4 1-8 1-13 1-36 0-74 0-110 0-37 0-73 0-110 0-4 0-8 0-11 0-6-2-10-5-10-11 1-6 5-10 10-11z m7-87c39 0 79 0 118 0 28 0 57 0 86 0 13 0 27 0 40 0 7 0 11 3 11 10 0 7-5 10-11 11-3 0-7 0-10 0-57 0-113 0-170 0-22 0-44 0-67 0-5 0-10-1-12-6-2-3-2-7 0-11 4-5 10-4 15-4z m539-203c-7 0-14 1-21 0-13-1-18 2-16 16 1 17 0 34 0 51 0 34-23 55-56 56-14 0-28 0-42 0-26-1-46-19-50-44-3-15-1-30-2-44-1-11 5-26-3-33-6-6-20-1-31-2-15 0-18-3-18-17 0-50 0-98 0-148 0-14 3-18 18-18 36 0 72 0 109 0 36 0 73 0 110 0 10 0 17 4 17 14 0 52 0 103 0 155 0 10-6 15-15 14z m-164 70c0 17 12 30 29 31 16 1 31 1 46 0 16-1 29-14 29-30 0-21-1-41 0-61 0-8-3-10-10-9-15 0-29 0-43 0-14 0-28 0-42 0-7-1-11 1-11 9 2 20 1 40 2 60z m146-230c-63 0-126 0-189 0-8 0-10 3-10 11 1 39 1 78 0 117 0 10 4 11 12 11 31-1 62 0 93 0 31 0 62-1 94 0 8 0 11-3 11-11-1-39-1-78 0-117-1-9-3-11-11-11z m16-11c-4-1-6 1-6 5 0 4 2 6 6 6 3 0 5-2 5-6 0-3-1-5-5-5z m-92 123c-10 9-25 9-36 1-10-8-16-23-8-33 9-13 8-27 8-41 0-12 5-17 17-17 15 0 19 3 19 19 0 13-2 25 7 38 8 10 3 25-7 33z m-16-79c-7-1-8 4-7 8 0 2 0 5 0 7 0 0 0 0 0 0 0 3 0 6 0 9 0 3 2 4 5 4 3 0 5-2 5-5 0-4 0-9 1-14 1-4 2-8-4-9z" horiz-adv-x="1000" />

<glyph glyph-name="emo-thumbsup" unicode="&#xe805;" d="M744 850c-60 0-109-64-109-143 0-79 49-143 109-143 60 0 108 64 108 143 0 79-48 143-108 143z m-602-80c-29 0-53-24-53-54s24-53 53-53l290 0c30 0 54 24 54 53s-24 53-54 53l-290 1z m1040-21c-16 0-34-2-54-7-112-51-109-174-93-266l-131 0c-68 0-124-53-124-123 0-34 8-71 30-98-10-11-18-24-23-38-18-48-10-106 23-144-5-6-18-27-18-27-29-57-10-144 46-179 17-11 38-17 64-17l378 0c91 3 167 76 167 169l0 287c0 49-30 108-49 151-25 58-49 116-73 174-30 72-71 118-143 118z m3-115c30 1 42-48 51-67 21-52 42-129 64-181 21-47 38-88 38-104l0-255c0-41-36-72-76-74l-332 0c-17 0-26 9-30 24-5 15-7 34 4 47 6 8 16 13 26 13 21-1 39 17 39 38 0 21-17 37-38 37-9 0-18 4-24 11-15 16-16 50 0 65 3 4 7 6 12 8 4 1 8 2 12 2 20 0 38 17 38 38 0 21-17 38-38 38-28 0-34 28-34 50 0 12 7 23 17 29-1 2 189 4 210 4 27 0 47 30 33 55-27 51-45 207 22 221 2 1 4 1 6 1z m-1133-264c-7 0-14-1-20-4-27-12-39-44-27-71 66-148 194-254 344-297 29-8 59-14 90-17 30-3 61-4 91-2l3 0 2 0c30 3 52 28 50 58-2 29-28 51-58 49l-2 0-1 0c-25-2-50-1-74 1-24 3-48 8-72 14-120 34-222 120-276 238-9 20-29 32-50 31z" horiz-adv-x="1447" />

<glyph glyph-name="emo-happy" unicode="&#xe806;" d="M261 800c-60 0-109-65-109-144 0-80 49-145 109-145s110 65 110 145c0 79-49 144-110 144z m477 0c-61 0-110-65-110-144 0-80 49-145 110-145 60 0 110 65 110 145 0 79-50 144-110 144z m208-599c-13 0-27-5-37-16-4-4-8-8-12-12-111-109-253-164-396-165-142-2-285 50-396 155l-3 3-12 12c-21 21-54 20-75-1-20-21-20-55 1-76 3-4 8-8 14-14l3-3c132-124 301-186 469-184 169 1 337 67 468 195 5 5 9 10 14 14 20 22 20 56-1 77-10 10-23 15-37 15z" horiz-adv-x="999" />

<glyph glyph-name="search" unicode="&#xe807;" d="M643 386q0 103-73 176t-177 74-177-74-73-176 73-177 177-73 177 73 73 177z m286-465q0-29-22-50t-50-21q-30 0-50 21l-191 191q-100-69-223-69-80 0-153 31t-125 84-84 125-31 153 31 152 84 126 125 84 153 31 153-31 125-84 84-126 31-152q0-123-69-223l191-191q21-21 21-51z" horiz-adv-x="928.6" />

<glyph glyph-name="emo-coffee" unicode="&#xe808;" d="M1234 850c-17 0-34-8-44-23-54-80-24-144 4-204 13-29 26-56 5-72-23-17-28-51-10-74 17-23 51-28 74-10 89 67 60 131 27 201-15 33-32 70-12 99 16 25 10 57-14 74-9 6-20 9-30 9z m-1021-121c-81 0-157-39-203-105-18-25-12-59 14-77 24-17 59-11 76 14 45 63 132 76 193 32l0 0c3-2 7-5 11-9l1 0 1-2c3-3 7-7 10-10l1-1 0-1 0 0 1-1 1 0c20-23 55-25 78-4 22 20 24 55 4 77-46 55-116 87-188 87z m499 0c-80 0-156-39-202-105-18-25-12-59 13-77 25-17 59-11 77 14 44 63 131 76 192 32l0 0c4-2 8-5 12-9l0 0 1-2c4-3 7-7 11-10l1-1 0-1 0 0 1-1 0 0c20-23 55-25 78-4 23 20 25 55 4 77-46 55-116 87-188 87z m206-346c-24 0-44-19-44-43l1-4-1-275 0 0 0 0 0 0c0-58 24-111 62-149l0 0 0 0 0 0c38-38 91-62 148-62l0 0 226 0c1 0 3 0 5 0 13 1 27 2 39 5 15 4 29 8 42 14 55 26 97 74 114 133l31 0 0 0c37 0 70 15 94 39 23 23 38 56 38 92l0 0 0 0 0 119 0 0c0 36-15 69-39 93l0 0c-23 23-56 38-92 38l0 0 0 0-624 0z m604-100c11 0 21-5 28-12l1 0 0 0c7-8 12-18 12-29l0 0 0-110 0 0c0-11-5-21-12-29-8-7-18-12-29-12l0 0-62 0 0 0c-21 0-39-16-40-36-4-42-31-77-67-94-7-3-15-6-22-8-7-1-14-2-21-2l-3 0-209 0 0-1c-30 1-59 13-79 34l-1 0c-21 21-34 50-34 81l0 0 0 0 0 0 1 218 537 0 0 0z m-82-55l0-96 32 0c22 0 39 17 39 38l0 20c0 21-17 38-39 38l-32 0z m-1131-12c-30 0-55-25-55-55s25-55 55-55l297 0c30 0 54 25 54 55s-24 55-54 55l-297 0z" horiz-adv-x="1673" />

<glyph glyph-name="mail" unicode="&#xe809;" d="M929 11v428q-18-20-39-36-149-115-238-189-28-24-46-37t-48-28-57-13h-2q-26 0-57 13t-48 28-46 37q-88 74-238 189-21 16-39 36v-428q0-7 6-13t12-5h822q7 0 12 5t6 13z m0 586v14t-1 7-1 7-3 5-5 4-8 2h-822q-7 0-12-6t-6-12q0-94 83-159 107-84 223-176 4-3 20-17t25-21 25-17 28-16 24-5h2q11 0 24 5t28 16 25 17 25 21 20 17q116 92 224 176 30 24 56 65t26 73z m71 21v-607q0-37-26-63t-63-27h-822q-36 0-63 27t-26 63v607q0 37 26 63t63 26h822q37 0 63-26t26-63z" horiz-adv-x="1000" />

<glyph glyph-name="user" unicode="&#xe80a;" d="M736 128q204-72 204-122l0-106-940 0 0 106q0 50 204 122 94 34 128 69t34 95q0 22-22 49t-32 73q-2 12-9 18t-14 8-14 17-9 43q0 16 5 26t9 12l4 4q-8 50-12 88-4 54 41 112t157 58 158-58 40-112l-12-88q18-8 18-42-2-28-9-43t-14-17-14-8-9-18q-8-48-31-74t-23-48q0-60 35-95t127-69z" horiz-adv-x="940" />

<glyph glyph-name="briefcase" unicode="&#xe80b;" d="M357 707h286v72h-286v-72z m643-357v-268q0-37-26-63t-63-26h-822q-36 0-63 26t-26 63v268h375v-89q0-15 11-25t25-11h178q15 0 25 11t11 25v89h375z m-429 0v-71h-142v71h142z m429 268v-214h-1000v214q0 37 26 63t63 26h197v89q0 23 15 38t38 16h322q22 0 38-16t15-38v-89h197q37 0 63-26t26-63z" horiz-adv-x="1000" />

<glyph glyph-name="phone" unicode="&#xe80c;" d="M786 158q0-15-6-39t-12-38q-11-28-68-60-52-28-103-28-15 0-30 2t-32 7-26 8-31 11-28 10q-54 20-97 47-71 44-148 120t-120 148q-27 43-46 97-2 5-10 28t-12 31-8 26-7 32-2 29q0 52 29 104 31 57 59 68 14 6 38 12t39 6q8 0 12-2 10-3 30-42 6-11 16-31t20-35 17-30q2-2 10-14t12-20 4-16q0-11-16-27t-35-31-34-30-16-25q0-5 3-13t4-11 8-14 7-10q42-77 97-132t131-97q1 0 10-6t14-8 11-5 13-2q10 0 25 16t30 34 31 35 28 16q7 0 15-4t20-12 14-10q14-8 30-17t36-20 30-17q39-19 42-29 2-4 2-12z" horiz-adv-x="785.7" />

<glyph glyph-name="pencil" unicode="&#xe80d;" d="M203-7l50 51-131 131-51-51v-60h72v-71h60z m291 518q0 12-12 12-5 0-9-4l-303-302q-4-4-4-10 0-12 13-12 5 0 9 4l303 302q3 4 3 10z m-30 107l232-232-464-465h-232v233z m381-54q0-29-20-50l-93-93-232 233 93 92q20 21 50 21 29 0 51-21l131-131q20-22 20-51z" horiz-adv-x="857.1" />

<glyph glyph-name="emo-unhappy" unicode="&#xe80e;" d="M261 800c-60 0-109-65-109-144 0-80 49-145 109-145s110 65 110 145c0 79-49 144-110 144z m477 0c-61 0-110-65-110-144 0-80 49-145 110-145 60 0 110 65 110 145 0 79-50 144-110 144z m-244-599c-165 0-331-62-461-184l-3-3c-6-5-11-10-14-14-21-21-21-55-1-76 21-21 54-21 75-1l12 12 3 3c111 105 254 157 396 155 143-1 285-56 396-165 4-4 8-8 12-12 20-21 54-21 74-1 21 21 21 55 1 77-5 5-9 10-14 14-131 129-299 194-468 195-3 0-6 0-8 0z" horiz-adv-x="999" />

<glyph glyph-name="emo-surprised" unicode="&#xe80f;" d="M110 849c-61 0-110-65-110-144 0-80 49-145 110-145s109 65 109 145c0 79-49 144-109 144z m476 0c-60 0-109-65-109-144 0-80 49-145 109-145 61 0 110 65 110 145 0 79-49 144-110 144z m-255-432l0 0c-56 0-107-23-143-59-37-37-60-88-60-144l0 0 0-162 0 0c0-56 23-106 59-143 37-37 88-60 144-60l0 0 34 0 0 0c56 0 107 23 143 60 37 36 60 87 60 143l0 0 0 162 0 0c0 56-23 107-59 143-37 37-88 60-144 60l0 0-34 0z m0-107l0 0 34 0 0 0c26 0 50-11 67-28 18-18 29-42 29-68l0 0 0-162 0 0c0-26-11-50-28-67-18-18-42-29-68-29l0 1-34 0 0-1c-26 0-50 11-68 29-17 17-28 41-28 67l0 0 0 162 0 0c0 26 11 50 28 67 18 18 42 29 68 29z" horiz-adv-x="696" />

<glyph glyph-name="emo-displeased" unicode="&#xe810;" d="M171 800c-61 0-110-65-110-144 0-80 49-145 110-145s109 65 109 145c0 79-49 144-109 144z m476 0c-61 0-110-65-110-144 0-80 49-145 110-145 61 0 110 65 110 145 0 79-49 144-110 144z m-594-447c-18 0-36-10-46-27-15-26-6-59 20-74l709-379c26-15 59-6 74 20 15 26 6 59-20 74l-709 379c-9 5-18 7-28 7z" horiz-adv-x="817" />

<glyph glyph-name="home" unicode="&#xe811;" d="M786 296v-267q0-15-11-25t-25-11h-214v214h-143v-214h-214q-15 0-25 11t-11 25v267q0 1 0 2t0 2l321 264 321-264q1-1 1-4z m124 39l-34-41q-5-5-12-6h-2q-7 0-12 3l-386 322-386-322q-7-4-13-3-7 1-12 6l-35 41q-4 6-3 13t6 12l401 334q18 15 42 15t43-15l136-113v108q0 8 5 13t13 5h107q8 0 13-5t5-13v-227l122-102q6-4 6-12t-4-13z" horiz-adv-x="928.6" />

<glyph glyph-name="emo-laugh" unicode="&#xe812;" d="M206 742c-77 0-151-39-196-103-17-24-11-57 13-74 24-17 58-12 75 13 43 61 127 74 186 31l0 0c4-2 8-5 11-9l1 0 1-1c3-3 7-7 10-11l1-1 0 0 0 0 1-1 0 0c20-22 54-24 76-4 22 19 24 53 4 75-45 53-112 85-183 85z m486 0c-78 0-152-39-197-103-17-24-11-57 13-74 24-17 58-12 75 13 43 61 127 74 186 31l0 0c4-2 8-5 12-9l0 0 1-1c4-3 7-7 10-11l1-1 0 0 0 0 1-1 1 0c19-22 53-24 75-4 22 19 24 53 5 75-46 53-113 85-183 85z m148-421l-765 0c-29 0-52-24-52-54 4-200 238-351 422-354 187-3 443 156 448 355 0 29-24 53-53 53z m-700-106l634 0c-61-121-190-201-330-197-130 4-247 83-304 197z" horiz-adv-x="893" />

<glyph glyph-name="spin4" unicode="&#xe834;" d="M498 850c-114 0-228-39-320-116l0 0c173 140 428 130 588-31 134-134 164-332 89-495-10-29-5-50 12-68 21-20 61-23 84 0 3 3 12 15 15 24 71 180 33 393-112 539-99 98-228 147-356 147z m-409-274c-14 0-29-5-39-16-3-3-13-15-15-24-71-180-34-393 112-539 185-185 479-195 676-31l0 0c-173-140-428-130-589 31-134 134-163 333-89 495 11 29 6 50-12 68-11 11-27 17-44 16z" horiz-adv-x="1001" />

<glyph glyph-name="location" unicode="&#xf031;" d="M0 473q0 70 27 134 25 61 74 111 47 47 110 73 63 27 134 27 72 0 135-27 62-26 110-73 48-49 74-111 27-64 27-134t-27-134q-18-40-36-65l-229-347q-22-35-53-35t-55 35l-228 347q-22 31-36 65-27 64-27 134z m217 0q0-53 37-91 38-38 91-38 54 0 91 38 38 37 38 91 0 53-38 91-37 38-91 38-53 0-91-38-37-38-37-91z" horiz-adv-x="691.4" />

<glyph glyph-name="facebook" unicode="&#xf052;" d="M0 350h97v-469h193v469h130l17 161h-146v81q0 18 2 28t8 20 19 13 35 4h81v161h-129q-112 0-161-53t-49-157v-97h-97v-161z" horiz-adv-x="437.5" />

<glyph glyph-name="twitter" unicode="&#xf058;" d="M0 68q0-7 7-13 13-8 44-24 119-62 250-62 163 0 296 84 63 40 113 96t78 118 43 123 14 119v17q57 41 89 94 3 6 3 9 0 6-5 11t-11 5q-4 0-12-4-6-2-14-5t-15-5-8-3q13 15 26 39t14 35q0 6-5 11t-11 5q-4 0-8-3-56-29-104-40-59 56-141 56-84 0-143-59t-59-141q0-15 2-24-83 7-159 39t-138 88q-14 14-55 57-6 6-13 6-6 0-13-8-12-19-20-46t-7-54q0-73 45-127l-14 7q-12 5-18 5-8 0-14-5t-5-12q0-52 26-97t71-74l-5 1q-1 0-3 1t-3 1-1 0q-7 0-11-5t-5-11q0 0 1-5 17-51 55-86t90-48q-84-52-187-52-7 0-22 1-20 1-22 1-7 0-11-5t-5-11z" horiz-adv-x="937.5" />

<glyph glyph-name="youtube-play" unicode="&#xf16a;" d="M397 221l270 139-270 141v-280z m103 481q94 0 181-3t128-5l41-2q0 0 9-1t13-2 13-2 16-5 16-7 17-11 16-15q4-3 9-10t16-33 15-56q4-36 7-76t3-64v-98q1-81-10-162-4-30-14-55t-18-35l-8-9q-7-8-16-15t-17-10-16-7-16-5-13-2-13-2-9-1q-140-11-350-11-115 2-201 4t-111 4l-28 3-20 2q-20 3-30 5t-29 12-31 23q-4 3-9 10t-16 33-15 56q-4 36-7 76t-3 64v98q-1 81 10 162 4 31 14 55t18 35l8 9q8 9 16 15t17 11 16 7 16 5 13 2 13 2 9 1q140 10 350 10z" horiz-adv-x="1000" />

<glyph glyph-name="instagram" unicode="&#xf16d;" d="M571 350q0 59-41 101t-101 42-101-42-42-101 42-101 101-42 101 42 41 101z m77 0q0-91-64-156t-155-64-156 64-64 156 64 156 156 64 155-64 64-156z m61 229q0-21-15-36t-37-15-36 15-15 36 15 36 36 15 37-15 15-36z m-280 123q-4 0-43 0t-59 0-54-2-57-5-40-11q-28-11-49-32t-33-49q-6-16-10-40t-6-58-1-53 0-59 0-43 0-43 0-59 1-53 6-58 10-40q12-28 33-49t49-32q16-6 40-11t57-5 54-2 59 0 43 0 42 0 59 0 54 2 58 5 39 11q28 11 50 32t32 49q6 16 10 40t6 58 1 53 0 59 0 43 0 43 0 59-1 53-6 58-10 40q-11 28-32 49t-50 32q-16 6-39 11t-58 5-54 2-59 0-42 0z m428-352q0-128-3-177-5-116-69-180t-179-69q-50-3-177-3t-177 3q-116 6-180 69t-69 180q-3 49-3 177t3 177q5 116 69 180t180 69q49 3 177 3t177-3q116-6 179-69t69-180q3-49 3-177z" horiz-adv-x="857.1" />
</font>
</defs>
</svg>
